<?xml version="1.0" standalone="no"?>
<!DOCTYPE svg PUBLIC "-//W3C//DTD SVG 20010904//EN"
 "http://www.w3.org/TR/2001/REC-SVG-20010904/DTD/svg10.dtd">
<svg version="1.0" xmlns="http://www.w3.org/2000/svg"
 width="4476.000000pt" height="4476.000000pt" viewBox="0 0 4476.000000 4476.000000"
 preserveAspectRatio="xMidYMid meet">
<metadata>
Created by potrace 1.14, written by Peter Selinger 2001-2017
</metadata>
<g transform="translate(0.000000,4476.000000) scale(0.100000,-0.100000)"
fill="#000000" stroke="none">
<path d="M21878 41574 c-2 -1 -77 -5 -168 -8 -91 -4 -201 -8 -245 -11 -161 -8
-483 -31 -580 -40 -163 -15 -207 -20 -295 -29 -25 -3 -73 -8 -108 -11 -35 -4
-73 -8 -85 -11 -12 -2 -47 -6 -77 -9 -30 -3 -66 -8 -80 -10 -14 -2 -79 -11
-145 -20 -66 -8 -131 -17 -145 -19 -24 -5 -53 -9 -135 -21 -22 -3 -67 -11
-100 -17 -33 -5 -73 -12 -90 -15 -16 -2 -91 -16 -165 -30 -74 -14 -146 -27
-160 -29 -14 -2 -36 -7 -50 -10 -14 -3 -34 -8 -45 -10 -28 -5 -115 -23 -145
-30 -14 -3 -36 -7 -50 -10 -14 -3 -43 -10 -65 -16 -22 -6 -53 -12 -70 -15 -16
-3 -124 -29 -240 -58 -510 -131 -954 -277 -1361 -448 -439 -186 -815 -393
-1113 -614 -64 -47 -118 -89 -121 -92 -3 -4 -30 -26 -60 -50 -156 -125 -404
-406 -491 -557 -198 -343 -252 -682 -159 -1014 97 -350 347 -686 745 -1003 5
-5 44 -33 85 -62 41 -30 80 -58 85 -63 9 -7 106 -72 150 -99 502 -317 1163
-599 1890 -807 28 -8 74 -22 104 -30 65 -19 564 -143 606 -150 17 -3 62 -13
100 -21 78 -17 291 -60 345 -69 19 -3 46 -8 60 -11 20 -4 139 -24 360 -60 14
-3 43 -7 65 -10 22 -3 52 -8 67 -11 15 -3 42 -7 60 -9 35 -3 116 -14 158 -20
14 -2 51 -7 83 -10 32 -4 66 -8 75 -10 9 -1 46 -6 82 -10 36 -3 76 -8 90 -10
22 -3 63 -7 195 -20 22 -2 72 -7 110 -10 39 -3 90 -8 115 -10 57 -6 160 -14
270 -20 47 -3 117 -7 155 -10 67 -4 291 -14 480 -21 143 -5 865 -5 1029 0 187
7 366 14 476 21 213 14 360 24 430 30 25 2 79 7 120 10 41 4 86 8 100 10 14 2
59 6 100 10 41 4 86 8 100 10 14 2 52 7 85 10 33 3 69 7 80 9 11 2 47 7 80 10
33 4 71 9 85 11 14 2 50 7 80 10 30 4 62 8 70 10 8 1 37 6 63 9 27 4 56 9 65
11 10 1 40 6 67 9 134 18 512 86 725 131 177 38 332 73 368 84 17 5 32 8 32 5
0 -3 8 0 18 5 9 5 31 12 47 15 17 3 48 10 70 16 22 6 50 13 62 15 12 3 33 9
45 14 13 5 25 9 28 9 28 1 360 99 568 168 185 62 473 167 557 204 22 10 81 34
130 55 351 147 766 379 1041 581 280 206 509 438 658 667 172 264 252 579 221
867 -14 133 -107 421 -151 471 -8 8 -14 20 -14 26 0 5 -31 57 -69 114 -269
407 -736 773 -1396 1094 -352 172 -685 305 -1050 419 -247 78 -265 83 -400
121 -71 19 -146 40 -165 45 -249 70 -826 192 -1157 245 -173 27 -208 33 -238
39 -11 2 -45 7 -76 10 -31 4 -67 9 -80 11 -12 3 -45 7 -73 10 -28 3 -64 8 -81
10 -47 7 -105 15 -160 20 -88 9 -119 13 -165 19 -47 6 -114 12 -215 21 -33 3
-82 7 -110 10 -134 12 -166 15 -250 20 -49 3 -122 8 -161 10 -69 5 -137 8
-374 21 -104 6 -1197 13 -1202 8z"/>
<path d="M5 41380 c-8 -15 0 -5442 8 -5447 5 -3 2459 -5 5453 -5 l5444 -1 1
-31 c0 -17 1 -1136 1 -2486 0 -2241 -1 -2461 -16 -2519 -33 -128 -117 -250
-221 -320 -320 -216 -747 -45 -841 336 -4 15 -8 901 -10 1968 -1 1067 -3 1946
-3 1953 -1 9 -990 12 -4909 12 l-4909 0 2 -3122 c1 -1718 5 -3137 8 -3155 3
-17 9 -73 12 -123 4 -51 8 -100 10 -109 1 -9 6 -50 10 -91 3 -41 8 -82 10 -90
2 -8 7 -35 10 -60 70 -517 237 -1097 462 -1603 89 -200 238 -493 287 -562 11
-16 19 -30 17 -30 -3 0 2 -11 11 -25 9 -14 51 -81 93 -150 163 -262 420 -607
620 -830 59 -66 454 -460 495 -494 19 -16 53 -45 76 -65 203 -180 474 -381
749 -556 241 -154 663 -372 920 -475 72 -29 144 -59 160 -66 166 -71 667 -218
917 -268 58 -12 297 -55 333 -61 203 -30 351 -45 600 -61 147 -9 2404 -10
2570 -1 111 6 150 9 290 22 62 6 142 15 175 20 14 2 45 7 70 10 78 11 164 25
250 41 14 2 41 7 60 10 19 3 41 7 49 10 8 2 30 7 50 10 148 23 615 158 866
251 255 94 654 279 875 404 81 47 334 202 340 209 3 3 30 21 60 40 107 67 400
286 530 396 149 127 224 196 395 368 220 220 236 238 410 446 169 203 376 496
511 723 30 51 59 99 64 107 92 147 285 542 367 750 14 36 31 79 38 95 63 148
176 506 230 725 56 228 114 536 129 680 3 30 8 64 10 75 4 20 11 88 21 210 3
33 8 89 12 125 3 36 7 2933 9 6438 1 4818 -1 6372 -9 6373 -38 4 -14169 3
-14172 -1z"/>
<path d="M36497 41383 c-1 0 -63 -4 -138 -7 -74 -4 -145 -8 -156 -10 -11 -2
-57 -7 -104 -11 -46 -4 -92 -9 -101 -10 -9 -2 -43 -6 -75 -10 -57 -6 -93 -11
-143 -20 -14 -2 -43 -7 -65 -10 -23 -3 -52 -7 -65 -10 -14 -3 -50 -9 -80 -15
-30 -6 -64 -12 -75 -14 -41 -9 -171 -38 -190 -42 -11 -3 -31 -7 -45 -10 -182
-36 -703 -208 -934 -308 -286 -124 -539 -252 -753 -382 -58 -35 -107 -64 -109
-64 -7 0 -324 -216 -414 -283 -902 -667 -1624 -1605 -2042 -2651 -133 -333
-272 -802 -321 -1081 -3 -16 -13 -67 -21 -112 -8 -45 -18 -101 -21 -125 -3
-24 -8 -54 -10 -68 -11 -70 -36 -275 -40 -330 -2 -19 -7 -82 -11 -140 -11
-136 -12 -6969 -1 -7118 5 -63 10 -124 12 -135 2 -12 6 -53 9 -92 3 -38 12
-117 21 -175 8 -58 17 -121 20 -140 28 -191 99 -511 164 -737 266 -919 739
-1758 1387 -2459 115 -125 265 -274 375 -374 45 -41 87 -80 93 -85 6 -6 54
-45 106 -88 52 -43 104 -86 115 -96 44 -36 195 -150 285 -213 52 -37 100 -71
107 -77 7 -6 15 -11 18 -11 3 0 39 -22 78 -49 275 -185 689 -401 1042 -543
393 -158 774 -267 1210 -347 61 -11 130 -23 155 -26 25 -3 56 -7 70 -10 38 -7
185 -24 345 -39 177 -17 724 -20 4435 -20 l4125 -1 0 4365 0 4365 -4165 1
c-2291 0 -4196 4 -4235 8 -127 12 -256 31 -345 51 -14 3 -37 7 -51 10 -52 9
-334 97 -346 107 -7 6 -13 8 -13 5 0 -7 -177 71 -268 118 -399 206 -727 492
-989 861 -39 55 -78 113 -87 129 -9 17 -25 44 -36 60 -33 53 -126 237 -160
320 -18 44 -36 89 -41 100 -47 111 -128 424 -144 555 -31 242 -36 433 -16 520
55 236 265 413 502 424 265 12 502 -167 560 -422 5 -26 12 -99 14 -162 2 -63
7 -133 10 -155 4 -22 9 -53 11 -70 19 -126 76 -307 135 -431 37 -78 119 -220
148 -256 210 -263 371 -398 616 -517 93 -46 248 -104 305 -115 14 -2 46 -9 73
-15 64 -15 109 -22 192 -30 39 -3 1929 -6 4200 -6 l4130 0 0 4365 0 4365
-4128 0 c-2271 0 -4129 -1 -4130 -2z"/>
<path d="M15287 34833 c-3 -7 -2 -11980 2 -11993 0 -3 3192 -5 7091 -5 l7090
0 1 40 c1 49 1 11911 0 11943 l-1 22 -7089 0 c-3900 0 -7092 -3 -7094 -7z"/>
<path d="M5508 21735 c-2 -1 -61 -6 -133 -9 -71 -3 -150 -8 -175 -10 -79 -8
-224 -24 -270 -31 -14 -2 -45 -7 -70 -10 -25 -3 -106 -17 -180 -31 -74 -14
-146 -28 -160 -30 -14 -3 -63 -14 -110 -25 -47 -12 -92 -22 -100 -24 -142 -29
-494 -144 -730 -237 -159 -64 -500 -224 -625 -296 -27 -15 -70 -39 -95 -52
-25 -14 -47 -27 -50 -30 -3 -3 -27 -19 -55 -35 -424 -244 -978 -705 -1324
-1105 -41 -47 -86 -98 -100 -115 -89 -101 -270 -344 -401 -540 -147 -220 -391
-678 -480 -900 -18 -44 -38 -94 -46 -112 -51 -113 -188 -529 -209 -631 -2 -9
-17 -71 -34 -137 -16 -66 -33 -133 -35 -150 -3 -16 -10 -52 -16 -80 -6 -27
-13 -62 -15 -78 -3 -15 -7 -39 -10 -55 -9 -47 -34 -215 -41 -277 -3 -33 -8
-67 -9 -76 -2 -9 -6 -56 -10 -105 -4 -49 -9 -105 -12 -124 -3 -19 -6 -3006 -8
-6638 -1 -4755 1 -6602 9 -6603 6 -1 1479 -2 3274 -3 l3262 -1 0 2474 c0 1776
3 2493 11 2540 20 120 108 258 214 337 167 126 422 137 600 26 113 -71 197
-178 242 -311 15 -41 16 -304 18 -2547 1 -1375 4 -2505 7 -2510 4 -5 1306 -9
3275 -9 l3268 0 0 6555 c0 5656 -3 6719 -20 6810 -1 8 -6 50 -10 93 -3 43 -8
88 -10 100 -5 27 -26 175 -29 202 -10 77 -59 314 -97 470 -68 273 -165 567
-271 820 -96 229 -297 621 -402 785 -164 256 -392 571 -499 690 -18 19 -61 69
-97 110 -130 150 -395 408 -595 580 -71 61 -229 183 -340 263 -66 47 -125 91
-132 97 -7 5 -15 10 -18 10 -3 0 -27 15 -53 33 -51 36 -279 177 -286 177 -2 0
-38 20 -80 44 -111 66 -399 205 -581 281 -162 68 -503 186 -650 225 -236 64
-557 129 -750 154 -22 3 -58 8 -80 10 -84 11 -129 16 -198 22 -40 3 -99 8
-132 11 -59 5 -3341 13 -3347 8z m1770 -5755 c96 -16 115 -20 190 -46 172 -57
316 -148 453 -284 107 -107 183 -213 241 -337 42 -91 84 -225 94 -301 3 -26 8
-56 10 -67 6 -29 5 -226 -1 -255 -3 -14 -7 -45 -10 -70 -6 -52 -48 -195 -77
-260 -156 -361 -467 -614 -853 -696 -105 -22 -306 -26 -416 -8 -432 69 -797
381 -933 797 -61 188 -73 358 -39 577 10 68 55 206 92 285 176 374 524 624
936 673 83 10 234 6 313 -8z"/>
<path d="M20798 21735 c-2 -2 -66 -6 -143 -9 -77 -4 -151 -8 -165 -10 -14 -2
-60 -7 -103 -11 -43 -3 -88 -8 -100 -10 -29 -5 -164 -24 -202 -29 -101 -14
-403 -77 -535 -112 -8 -2 -41 -10 -72 -18 -31 -7 -60 -16 -65 -19 -5 -3 -20
-8 -34 -11 -93 -17 -514 -173 -729 -269 -160 -72 -471 -231 -510 -261 -8 -6
-35 -22 -60 -36 -25 -13 -56 -31 -70 -40 -14 -10 -85 -56 -158 -104 -202 -132
-324 -223 -537 -402 -236 -198 -466 -424 -640 -629 -27 -32 -60 -70 -72 -83
-13 -14 -23 -28 -23 -31 0 -3 -13 -19 -28 -36 -44 -48 -152 -190 -247 -325
-86 -123 -245 -373 -245 -386 0 -3 -8 -18 -18 -32 -38 -54 -162 -295 -247
-477 -70 -151 -224 -549 -239 -620 -2 -5 -13 -41 -25 -80 -12 -38 -24 -78 -27
-87 -2 -10 -6 -26 -8 -35 -3 -10 -12 -45 -21 -78 -18 -66 -41 -159 -49 -196
-3 -13 -14 -65 -25 -115 -11 -50 -22 -109 -25 -130 -4 -22 -8 -51 -11 -64 -3
-13 -7 -42 -10 -65 -9 -61 -13 -86 -19 -130 -4 -22 -9 -62 -11 -90 -3 -27 -7
-66 -9 -85 -6 -48 -15 -145 -22 -265 -12 -171 -10 -13165 1 -13166 5 -1 1478
-2 3273 -3 2171 -1 3262 2 3263 9 1 5 2 741 3 1635 l1 1625 3818 3 3817 2 1
23 c4 140 0 5417 -4 5424 -4 6 -1536 10 -4139 10 -3634 0 -4231 2 -4348 17
-128 17 -177 24 -200 31 -8 2 -31 7 -50 10 -19 3 -53 11 -75 16 -22 6 -48 13
-58 15 -96 18 -372 122 -511 191 -143 71 -392 223 -416 253 -3 3 -21 17 -40
30 -19 13 -37 27 -40 30 -3 3 -34 29 -70 59 -160 134 -365 362 -486 541 -222
327 -383 732 -440 1110 -3 25 -8 52 -9 60 -17 95 -25 416 -12 478 44 202 218
374 421 416 59 13 175 14 227 2 160 -36 308 -154 375 -301 39 -84 51 -140 53
-243 1 -50 4 -102 6 -114 2 -13 6 -52 10 -88 34 -340 226 -718 490 -968 74
-70 225 -192 239 -192 3 0 24 -13 48 -29 157 -105 432 -198 668 -227 36 -4
1931 -8 4213 -8 l4147 -1 1 30 c4 199 0 8685 -4 8692 -4 7 -1491 10 -4337 10
-2381 0 -4331 -1 -4332 -2z"/>
<path d="M30570 20146 l0 -1591 2523 -1 2522 0 48 -23 c58 -28 120 -97 140
-154 49 -145 -42 -310 -188 -341 -17 -4 -548 -8 -1180 -10 -633 -2 -1168 -6
-1190 -10 -22 -3 -60 -8 -85 -11 -49 -6 -62 -8 -190 -31 -169 -30 -395 -97
-560 -166 -101 -43 -281 -131 -340 -166 -19 -12 -48 -29 -65 -38 -50 -28 -250
-167 -253 -176 -2 -4 -8 -8 -14 -8 -5 0 -15 -6 -22 -12 -7 -7 -39 -35 -72 -63
-525 -445 -872 -1023 -1007 -1675 -26 -124 -31 -153 -42 -240 -3 -25 -9 -61
-12 -80 -3 -19 -8 -618 -10 -1330 l-4 -1295 3411 0 3410 0 1 40 c0 50 0 3080
0 3116 l-1 26 -2519 1 c-2473 0 -2519 0 -2562 19 -98 44 -159 139 -159 247 0
108 57 193 160 240 45 20 59 20 1330 21 707 1 1319 5 1360 9 76 7 91 9 168 21
23 4 52 8 65 10 269 42 663 194 920 357 302 191 585 464 775 748 31 47 60 87
65 88 4 2 7 8 7 13 0 5 11 26 23 47 31 49 137 252 132 252 -2 0 7 21 20 48 98
195 189 564 211 852 5 64 5 383 0 420 -2 14 -7 55 -10 92 -4 37 -10 80 -12 95
-3 15 -7 37 -9 48 -20 127 -56 271 -107 420 -22 66 -44 125 -48 130 -4 6 -11
21 -15 35 -25 82 -150 314 -252 466 -169 251 -426 511 -680 687 -313 217 -752
393 -1083 433 -37 4 -121 16 -155 22 -16 2 -1023 6 -2237 7 l-2208 3 0 -1592z"/>
<path d="M40748 21735 c-2 -2 -43 -6 -93 -9 -158 -10 -316 -36 -500 -82 -109
-27 -334 -101 -349 -115 -6 -5 -17 -9 -25 -9 -20 0 -299 -138 -386 -191 -150
-90 -243 -157 -410 -292 -121 -98 -319 -308 -444 -470 -145 -189 -304 -470
-395 -701 -27 -66 -50 -127 -52 -135 -2 -9 -17 -61 -34 -116 -28 -90 -59 -218
-74 -300 -3 -16 -8 -39 -10 -51 -2 -12 -8 -45 -11 -75 -4 -30 -9 -65 -11 -79
-2 -14 -7 -65 -11 -115 -11 -119 -10 -3435 0 -3545 10 -102 13 -123 37 -265
81 -468 266 -896 554 -1280 33 -44 62 -82 65 -85 3 -3 28 -32 55 -65 73 -88
247 -260 351 -346 320 -264 665 -449 1055 -566 99 -30 169 -45 350 -80 61 -11
242 -30 315 -33 44 -2 334 -3 645 -3 491 -1 661 3 770 17 153 20 157 21 278
46 104 22 288 72 342 94 19 8 73 29 118 46 589 220 1150 705 1482 1283 155
270 283 607 335 882 8 42 33 193 39 235 18 116 21 409 21 1905 0 1477 -4 1793
-20 1885 -2 14 -7 47 -10 74 -3 27 -7 51 -9 55 -2 3 -7 28 -10 55 -9 67 -32
161 -68 286 -141 491 -399 925 -762 1285 -320 318 -676 543 -1099 696 -128 46
-351 104 -487 125 -69 11 -88 14 -130 19 -25 3 -63 8 -85 11 -41 6 -1321 14
-1327 9z m770 -3964 c238 -82 397 -310 387 -558 -2 -43 -6 -88 -9 -100 -3 -13
-8 -32 -11 -43 -14 -65 -80 -174 -145 -239 -65 -65 -175 -133 -235 -145 -11
-3 -40 -9 -63 -14 -60 -14 -193 -7 -255 14 -173 56 -316 193 -373 359 -72 208
-14 444 147 597 80 76 192 135 289 151 64 11 207 -1 268 -22z"/>
<path d="M30570 10606 l0 -1591 2523 -1 c2339 -1 2525 -2 2560 -18 95 -42 158
-135 162 -240 4 -111 -81 -228 -187 -257 -30 -8 -382 -12 -1187 -14 -631 -1
-1168 -5 -1196 -9 -27 -3 -68 -8 -90 -11 -22 -3 -56 -8 -75 -11 -20 -2 -47 -7
-60 -9 -14 -3 -41 -8 -60 -11 -57 -9 -300 -73 -365 -96 -201 -70 -429 -176
-581 -270 -47 -29 -93 -57 -103 -63 -178 -106 -482 -379 -656 -590 -222 -268
-404 -591 -519 -923 -31 -90 -80 -258 -91 -310 -34 -171 -42 -218 -51 -297 -3
-27 -8 -61 -12 -75 -3 -14 -7 -610 -9 -1325 l-4 -1300 3411 0 c3404 0 3410 0
3411 20 0 27 0 3114 0 3142 l-1 23 -2507 -2 c-2052 -1 -2515 1 -2548 12 -83
27 -139 81 -174 168 -18 43 -10 156 14 202 25 48 80 99 134 123 46 21 53 21
1336 22 1145 2 1344 4 1445 20 14 2 45 7 70 10 116 15 415 88 449 109 6 4 19
9 28 11 25 5 175 66 258 106 133 62 367 206 466 286 298 241 482 451 666 758
135 227 260 546 307 785 32 162 31 156 41 260 4 36 8 76 11 90 5 32 5 359 0
427 -15 180 -45 346 -95 524 -64 225 -154 434 -274 634 -52 86 -170 260 -187
275 -3 3 -35 41 -72 85 -178 215 -431 426 -693 578 -198 115 -494 232 -685
272 -8 2 -46 10 -85 19 -61 13 -146 27 -265 43 -19 3 -1031 6 -2247 7 l-2213
3 0 -1591z"/>
<path d="M37933 10606 l2 -1591 2520 0 c2516 -1 2520 -1 2565 -21 54 -25 103
-72 133 -128 30 -58 31 -174 0 -231 -40 -74 -113 -128 -190 -141 -22 -3 -775
-7 -1674 -8 -899 -1 -1645 -5 -1659 -9 -14 -4 -37 -9 -52 -12 -72 -13 -213
-83 -288 -143 -163 -129 -264 -300 -298 -506 -10 -64 -6 -242 8 -294 34 -130
82 -235 142 -312 126 -162 312 -274 508 -306 25 -4 783 -8 1685 -9 1638 -1
1640 -1 1685 -22 103 -47 154 -127 154 -243 1 -64 -3 -82 -26 -120 -35 -60
-73 -94 -133 -121 l-49 -22 -2517 1 -2517 0 0 -1588 c0 -1189 3 -1590 11
-1592 22 -7 4031 -1 4097 6 96 10 137 15 215 27 82 12 286 56 318 68 12 5 24
9 27 9 12 0 97 24 115 32 11 4 58 22 105 38 245 87 515 234 745 406 44 33 82
62 85 65 3 3 34 31 70 61 121 102 266 252 395 411 182 224 364 554 473 859 23
66 71 228 78 264 2 14 9 37 14 51 5 14 7 25 5 25 -2 0 -1 10 4 23 5 12 12 44
15 71 4 27 9 52 11 55 1 3 6 35 10 71 4 36 9 74 11 85 2 11 8 58 12 105 9 116
8 3455 -1 3555 -58 582 -250 1085 -583 1530 -111 149 -130 171 -274 316 -250
252 -475 416 -781 569 -181 91 -449 190 -614 227 -101 22 -273 53 -330 58 -38
4 -79 10 -90 13 -11 3 -948 6 -2082 7 l-2061 2 1 -1591z"/>
</g>
</svg>
