<?xml version="1.0" standalone="no"?>
<!DOCTYPE svg PUBLIC "-//W3C//DTD SVG 20010904//EN"
 "http://www.w3.org/TR/2001/REC-SVG-20010904/DTD/svg10.dtd">
<svg version="1.0" xmlns="http://www.w3.org/2000/svg"
 width="801.000000pt" height="801.000000pt" viewBox="0 0 801.000000 801.000000"
 preserveAspectRatio="xMidYMid meet">
<metadata>
Created by potrace 1.14, written by Peter Selinger 2001-2017
</metadata>
<g transform="translate(0.000000,801.000000) scale(0.100000,-0.100000)"
fill="#000000" stroke="none">
<path d="M2249 4986 c-2 -2 -35 -7 -74 -11 -38 -4 -81 -12 -94 -17 -13 -4 -26
-7 -28 -4 -3 2 -22 -2 -44 -9 -21 -8 -39 -12 -39 -10 0 7 -142 -54 -186 -80
-125 -73 -157 -182 -80 -271 64 -74 251 -154 421 -178 22 -3 54 -8 70 -11 52
-9 289 -12 366 -4 241 24 436 90 527 180 123 122 46 256 -198 345 -25 9 -54
18 -65 20 -11 2 -47 10 -80 18 -33 8 -78 17 -100 21 -48 8 -389 18 -396 11z"/>
<path d="M59 4958 c-4 -61 -1 -547 4 -554 3 -5 250 -9 571 -9 l566 0 0 -272
c0 -263 -1 -272 -21 -286 -20 -15 -53 -12 -76 6 -10 7 -13 64 -13 223 l0 214
-517 -2 -517 -3 1 -345 c1 -294 3 -355 18 -415 10 -38 21 -77 25 -85 64 -129
69 -136 145 -215 86 -89 187 -147 310 -176 63 -15 359 -20 445 -8 226 33 427
200 508 424 11 33 24 79 28 103 4 23 7 350 8 727 l1 685 -742 0 c-587 0 -743
-3 -744 -12z"/>
<path d="M3791 4959 c-105 -20 -214 -69 -280 -126 -125 -106 -188 -200 -226
-338 -23 -83 -24 -96 -23 -494 0 -323 3 -421 15 -472 53 -232 206 -397 443
-480 63 -21 77 -22 548 -25 l482 -4 0 460 0 460 -463 0 -463 0 -51 26 c-67 33
-110 76 -140 141 -26 56 -33 134 -13 158 17 20 64 19 82 -2 8 -10 15 -30 16
-45 3 -44 34 -99 75 -132 l39 -31 459 -1 459 -2 0 459 0 459 -457 -1 c-252 -1
-478 -5 -502 -10z"/>
<path d="M5350 4959 c-236 -59 -390 -199 -467 -425 -14 -44 -16 -130 -18 -781
l-2 -731 341 1 341 2 5 273 c5 295 5 292 61 292 52 0 54 -12 55 -294 1 -144 2
-264 3 -268 0 -4 154 -7 341 -6 l340 0 0 697 c0 440 -4 719 -10 757 -26 146
-97 261 -230 374 -43 37 -162 89 -240 105 -82 17 -455 20 -520 4z m322 -610
c10 -6 28 -25 38 -42 64 -105 -51 -229 -159 -173 -76 40 -86 156 -17 206 11 8
27 18 36 21 19 8 77 1 102 -12z"/>
<path d="M6922 4950 c-184 -48 -311 -152 -400 -326 -52 -103 -53 -117 -53
-818 0 -358 0 -681 1 -718 l0 -66 340 -1 340 0 1 27 c0 15 1 91 2 169 0 93 4
143 11 146 6 2 185 3 398 3 253 -1 389 2 391 9 2 9 1 502 -2 547 -1 16 -36 17
-473 20 -532 3 -499 -1 -583 82 -96 96 -116 256 -33 256 34 0 58 -20 58 -48 0
-28 20 -83 42 -115 44 -62 40 -61 518 -64 239 -1 444 0 455 2 20 4 20 12 18
452 0 246 -1 451 -2 456 -1 4 -216 7 -478 6 -437 0 -484 -2 -551 -19z"/>
<path d="M1660 4188 c-1 -107 -1 -1050 0 -1119 l0 -47 744 0 745 1 0 628 -1
629 -744 0 -744 0 0 -92z"/>
</g>
</svg>
